<svg width="51" height="52" viewBox="0 0 51 52" fill="none" xmlns="http://www.w3.org/2000/svg">
<g filter="url(#filter0_d_833_310)">
<ellipse cx="25.7593" cy="19.9834" rx="16.6243" ry="17.2732" fill="#F53838"/>
</g>
<path d="M30.9484 18.8161C30.9484 20.2098 30.3978 21.5465 29.4178 22.532C28.4377 23.5175 27.1085 24.0711 25.7226 24.0711C24.3366 24.0711 23.0074 23.5175 22.0274 22.532C21.0473 21.5465 20.4968 20.2098 20.4968 18.8161C20.4968 18.5166 20.5281 18.224 20.5821 17.9403H18.7548V24.9417C18.7548 25.4287 19.1468 25.8228 19.631 25.8228H31.8159C32.0479 25.8224 32.2704 25.7293 32.4343 25.5641C32.5982 25.3989 32.6903 25.1751 32.6903 24.9417V17.9403H30.863C30.917 18.224 30.9484 18.5166 30.9484 18.8161ZM25.7226 22.3195C26.1802 22.3193 26.6333 22.2286 27.0561 22.0524C27.4788 21.8762 27.8629 21.618 28.1864 21.2925C28.5099 20.967 28.7665 20.5806 28.9415 20.1554C29.1165 19.7302 29.2066 19.2745 29.2064 18.8144C29.2063 18.3542 29.1161 17.8985 28.9408 17.4734C28.7656 17.0483 28.5088 16.6621 28.1852 16.3367C27.8615 16.0114 27.4773 15.7534 27.0544 15.5774C26.6316 15.4014 26.1784 15.3109 25.7208 15.311C24.7966 15.3112 23.9104 15.6806 23.257 16.338C22.6036 16.9953 22.2367 17.8867 22.237 18.8161C22.2372 19.7455 22.6046 20.6367 23.2582 21.2937C23.9119 21.9507 24.7984 22.3197 25.7226 22.3195ZM29.9032 15.1376H31.9918C32.1305 15.1376 32.2636 15.0823 32.3619 14.9838C32.4602 14.8853 32.5157 14.7516 32.5161 14.6121V12.5118C32.5161 12.372 32.4609 12.2379 32.3625 12.139C32.2642 12.0401 32.1308 11.9846 31.9918 11.9846H29.9032C29.7642 11.9846 29.6308 12.0401 29.5325 12.139C29.4341 12.2379 29.3789 12.372 29.3789 12.5118V14.6121C29.3806 14.9011 29.6158 15.1376 29.9032 15.1376ZM25.7226 2C21.2875 2 17.034 3.77169 13.8979 6.92532C10.7618 10.079 9 14.3562 9 18.8161C9 23.276 10.7618 27.5533 13.8979 30.7069C17.034 33.8605 21.2875 35.6322 25.7226 35.6322C27.9186 35.6322 30.0931 35.1973 32.122 34.3522C34.1509 33.5071 35.9944 32.2684 37.5472 30.7069C39.1 29.1454 40.3318 27.2916 41.1722 25.2514C42.0126 23.2111 42.4451 21.0244 42.4451 18.8161C42.4451 16.6078 42.0126 14.4211 41.1722 12.3809C40.3318 10.3406 39.1 8.48684 37.5472 6.92532C35.9944 5.3638 34.1509 4.12514 32.122 3.28005C30.0931 2.43496 27.9186 2 25.7226 2ZM34.4322 25.6284C34.4322 26.6987 33.5613 27.5745 32.497 27.5745H18.9482C17.8839 27.5745 17.0129 26.6987 17.0129 25.6284V12.0038C17.0129 10.9336 17.8839 10.0577 18.9482 10.0577H32.497C33.5613 10.0577 34.4322 10.9336 34.4322 12.0038V25.6284Z" fill="white"/>
<defs>
<filter id="filter0_d_833_310" x="0.678148" y="0.361077" width="50.1623" height="51.4601" filterUnits="userSpaceOnUse" color-interpolation-filters="sRGB">
<feFlood flood-opacity="0" result="BackgroundImageFix"/>
<feColorMatrix in="SourceAlpha" type="matrix" values="0 0 0 0 0 0 0 0 0 0 0 0 0 0 0 0 0 0 127 0" result="hardAlpha"/>
<feOffset dy="6.10773"/>
<feGaussianBlur stdDeviation="4.22843"/>
<feColorMatrix type="matrix" values="0 0 0 0 0.0658854 0 0 0 0 0.0730469 0 0 0 0 0.1375 0 0 0 0.08 0"/>
<feBlend mode="normal" in2="BackgroundImageFix" result="effect1_dropShadow_833_310"/>
<feBlend mode="normal" in="SourceGraphic" in2="effect1_dropShadow_833_310" result="shape"/>
</filter>
</defs>
</svg>
