<svg width="19" height="26" viewBox="0 0 19 26" fill="none" xmlns="http://www.w3.org/2000/svg">
<path d="M16.5138 10.1803L16.5023 10.1655C16.5013 10.1647 16.5006 10.1635 16.5001 10.1623L9.27853 0.878693L2.05702 10.162C2.05619 10.1631 2.05489 10.1652 2.05489 10.1652L2.04297 10.1801C0.938705 11.6076 0.237303 13.4687 0.0502708 15.4674C-0.136761 17.4662 0.20131 19.4881 1.01074 21.2115C1.82017 22.935 3.0545 24.2612 4.51753 24.9792C5.98056 25.6972 7.58831 25.766 9.08521 25.1745C9.21117 25.125 9.3458 25.125 9.47178 25.1745C10.9686 25.7658 12.5762 25.697 14.0392 24.9788C15.5021 24.2607 16.7363 22.9346 17.5457 21.2113C18.355 19.4879 18.6932 17.4662 18.5062 15.4676C18.3192 13.4689 17.6179 11.6078 16.5138 10.1803ZM4.6249 16.3021C4.58974 16.3473 4.56186 16.401 4.54285 16.46C4.52383 16.5189 4.51404 16.5822 4.51405 16.6461C4.5269 18.2846 4.88711 19.8875 5.5559 21.2824C5.57109 21.314 5.57811 21.351 5.57596 21.3881C5.57381 21.4251 5.56259 21.4604 5.5439 21.4888C5.52523 21.5172 5.50004 21.5372 5.47195 21.5461C5.44387 21.5549 5.41432 21.5522 5.38754 21.5382C4.88476 21.2663 4.428 20.8711 4.04282 20.3747C3.25345 19.3598 2.80969 17.9836 2.80897 16.5484C2.80825 15.1132 3.25065 13.7363 4.039 12.7202L9.27853 5.98537L14.5178 12.7202C15.3063 13.7362 15.7488 15.1131 15.7481 16.5484C15.7474 17.9836 15.3036 19.3598 14.5142 20.3747C14.129 20.8711 13.6722 21.2663 13.1695 21.5382C13.1427 21.5522 13.1131 21.5549 13.0851 21.5461C13.057 21.5372 13.0318 21.5171 13.0131 21.4888C12.9944 21.4604 12.9831 21.4251 12.981 21.388C12.9789 21.3509 12.9858 21.3139 13.001 21.2822C13.67 19.8875 14.0304 18.2846 14.0434 16.6461C14.0434 16.5822 14.0336 16.5189 14.0144 16.4598C13.9953 16.4007 13.9674 16.3472 13.9321 16.302L11.4539 12.9229C11.4292 12.8964 11.3981 12.8819 11.366 12.8819C11.3339 12.8819 11.3028 12.8964 11.2781 12.9229C11.2534 12.9493 11.2368 12.9861 11.2311 13.0267C11.2253 13.0673 11.2308 13.1092 11.2466 13.1451C12.2091 15.3841 11.3815 18.6002 10.0012 20.3747L9.99396 20.3841C9.80346 20.6263 9.54628 20.7621 9.27834 20.762C9.01036 20.7619 8.75325 20.6258 8.56289 20.3835L8.55619 20.3747C7.17546 18.6002 6.34823 15.3845 7.31088 13.1456C7.3267 13.1096 7.33222 13.0678 7.32646 13.0272C7.32071 12.9865 7.30404 12.9497 7.27938 12.9234C7.25471 12.8969 7.22362 12.8824 7.19149 12.8824C7.15937 12.8824 7.12826 12.8969 7.1036 12.9234L4.6249 16.3021Z" fill="#F53838"/>
</svg>
