<svg width="51" height="53" viewBox="0 0 51 53" fill="none" xmlns="http://www.w3.org/2000/svg">
<g filter="url(#filter0_d_833_313)">
<ellipse cx="25.6243" cy="20.2732" rx="16.6243" ry="17.2732" fill="#F53838"/>
</g>
<path d="M25.7226 4C16.4868 4 9 11.5287 9 20.8161C9 30.1035 16.4868 37.6322 25.7226 37.6322C34.9583 37.6322 42.4451 30.1035 42.4451 20.8161C42.4451 11.5287 34.9583 4 25.7226 4ZM32.5248 17.7752C32.5318 17.9188 32.5335 18.0625 32.5335 18.2026C32.5335 22.5818 29.2221 27.6284 23.1637 27.6284C21.3735 27.6314 19.6205 27.1143 18.1155 26.1395C18.3716 26.171 18.6346 26.1832 18.9012 26.1832C20.4445 26.1832 21.8642 25.656 22.9912 24.7661C22.3044 24.7526 21.6389 24.5239 21.0875 24.1119C20.536 23.7 20.1262 23.1253 19.915 22.4679C20.4082 22.5623 20.9163 22.5425 21.4008 22.4101C20.6554 22.2585 19.985 21.8524 19.5034 21.2604C19.0217 20.6685 18.7585 19.9273 18.7583 19.1625V19.1222C19.2025 19.3692 19.7112 19.5199 20.2512 19.5374C19.5523 19.0696 19.0576 18.3509 18.8681 17.5284C18.6787 16.706 18.8089 15.8418 19.2321 15.1126C20.0595 16.1356 21.0912 16.9725 22.2606 17.569C23.43 18.1656 24.7109 18.5086 26.0204 18.5757C25.854 17.8651 25.9256 17.119 26.2243 16.4536C26.5229 15.7881 27.0318 15.2405 27.6719 14.8959C28.312 14.5513 29.0473 14.429 29.7637 14.548C30.48 14.6671 31.1371 15.0207 31.6329 15.5541C32.3701 15.4074 33.077 15.1355 33.7233 14.75C33.4776 15.5175 32.9632 16.1692 32.2757 16.5841C32.9287 16.505 33.5663 16.3284 34.1675 16.0603C33.7259 16.7258 33.1696 17.3065 32.5248 17.7752Z" fill="white"/>
<defs>
<filter id="filter0_d_833_313" x="0.543139" y="0.650872" width="50.1623" height="51.4601" filterUnits="userSpaceOnUse" color-interpolation-filters="sRGB">
<feFlood flood-opacity="0" result="BackgroundImageFix"/>
<feColorMatrix in="SourceAlpha" type="matrix" values="0 0 0 0 0 0 0 0 0 0 0 0 0 0 0 0 0 0 127 0" result="hardAlpha"/>
<feOffset dy="6.10773"/>
<feGaussianBlur stdDeviation="4.22843"/>
<feColorMatrix type="matrix" values="0 0 0 0 0.0658854 0 0 0 0 0.0730469 0 0 0 0 0.1375 0 0 0 0.08 0"/>
<feBlend mode="normal" in2="BackgroundImageFix" result="effect1_dropShadow_833_313"/>
<feBlend mode="normal" in="SourceGraphic" in2="effect1_dropShadow_833_313" result="shape"/>
</filter>
</defs>
</svg>
